<?xml version="1.0" encoding="utf-8"?>
<!-- Generator: Adobe Illustrator 19.1.0, SVG Export Plug-In . SVG Version: 6.00 Build 0)  -->
<svg version="1.1" xmlns="http://www.w3.org/2000/svg" xmlns:xlink="http://www.w3.org/1999/xlink" x="0px" y="0px"
	 viewBox="0 0 50 50" style="enable-background:new 0 0 50 50;" xml:space="preserve">
<style type="text/css">
	.st0{display:none;}
	.st1{display:inline;fill:#201600;}
	.st2{fill:none;stroke:#FCAB62;stroke-width:3;stroke-miterlimit:10;}
	.st3{fill:#FCAB62;}
</style>
<g id="Слой_1" class="st0">
	
		<image style="display:inline;overflow:visible;" width="204" height="204" xlink:href="../../Downloads/download.png"  transform="matrix(0.2446 0 0 0.2446 -3.839238e-02 0.1374)">
	</image>
</g>
<g id="Слой_3" class="st0">
	<path class="st1" d="M28.8,34.7c0,0,4.5,0.2,7.7-3.6s2.1-8.8,1.9-9.2s-0.6-2.7-2.1-3.8c0,0,1.6-2.8-0.1-5.9c0,0-2.4-0.7-6,2.3
		c0,0-5.5-1.9-11.1,0.1c0,0-2.9-2.8-5.9-2.4c0,0-1.3,3.3-0.2,5.9c0,0-2.4,2-2.2,6.9s2.8,6.9,3.4,7.5s2.4,1.9,6.4,2.2
		c0,0-1.2,0.7-1.2,2.9c0,0-0.8,1-3.3,0.6s-2.7-2.1-3.7-3.1s-3.6-2.2-3.9-1.2c0,0-0.3,0.6,1.1,1.2c1.5,0.6,1.7,1.4,2.1,2.6
		s1.7,2.8,3.8,3.3c2,0.5,3,0.3,4-0.2l0,4.1c0,0-0.1,1.2-2.5,0.2l1,2.4l14-0.4l0.4-1.6c0,0-2.2,1-2.3-0.7l0.1-7.5
		C30,37.3,30.1,35.6,28.8,34.7z"/>
	
		<image style="display:inline;overflow:visible;" width="225" height="225" xlink:href="../../Downloads/download (1).png"  transform="matrix(0.2222 0 0 0.2222 -0.2487 -5.922318e-02)">
	</image>
</g>
<g id="Слой_2">
	<circle class="st2" cx="25" cy="25" r="23.2"/>
</g>
<g id="Слой_4">
	<rect x="14.4" y="20.5" class="st3" width="5.1" height="15.6"/>
	<rect x="22.2" y="20.5" class="st3" width="5.1" height="15.6"/>
	<path class="st3" d="M27.1,23.1c0,0,1.4-2.8,4.6-2.9c2.8-0.1,6.1,1.5,6.1,5.7c0,4.9-0.1,10.2-0.1,10.2h-5.2c0,0,0-8.9,0-9.4
		c0-0.8-0.6-2.5-2.2-2.5c-2.2,0-3.1,1.9-3.1,2.8s-1.2,0.3-1.2,0.3L27.1,23.1z"/>
	<ellipse class="st3" cx="16.8" cy="15.9" rx="3.1" ry="2.8"/>
</g>
</svg>
